<mxfile host="app.diagrams.net" modified="2023-12-23T02:03:55.021Z" agent="Mozilla/5.0 (Windows NT 10.0; Win64; x64) AppleWebKit/537.36 (KHTML, like Gecko) Chrome/120.0.0.0 Safari/537.36" etag="x_2yY78klLdznQP0OcjS" version="22.1.11" type="github">
  <diagram name="ページ1" id="xu3zL0TH3c5mUvp_H_aF">
    <mxGraphModel dx="1114" dy="607" grid="1" gridSize="10" guides="1" tooltips="1" connect="1" arrows="1" fold="1" page="1" pageScale="1" pageWidth="827" pageHeight="1169" math="0" shadow="0">
      <root>
        <mxCell id="0" />
        <mxCell id="1" parent="0" />
        <mxCell id="biuHPZ7P6EIKtqggzLLb-1" value="" style="rounded=0;whiteSpace=wrap;html=1;" vertex="1" parent="1">
          <mxGeometry x="140" y="240" width="120" height="60" as="geometry" />
        </mxCell>
        <mxCell id="biuHPZ7P6EIKtqggzLLb-2" value="Ingest Data" style="text;html=1;strokeColor=none;fillColor=none;align=center;verticalAlign=middle;whiteSpace=wrap;rounded=0;" vertex="1" parent="1">
          <mxGeometry x="160" y="255" width="80" height="30" as="geometry" />
        </mxCell>
        <mxCell id="biuHPZ7P6EIKtqggzLLb-3" value="" style="rounded=0;whiteSpace=wrap;html=1;" vertex="1" parent="1">
          <mxGeometry x="294" y="240" width="120" height="60" as="geometry" />
        </mxCell>
        <mxCell id="biuHPZ7P6EIKtqggzLLb-4" value="Data Analytics" style="text;html=1;strokeColor=none;fillColor=none;align=center;verticalAlign=middle;whiteSpace=wrap;rounded=0;" vertex="1" parent="1">
          <mxGeometry x="314" y="255" width="80" height="30" as="geometry" />
        </mxCell>
        <mxCell id="biuHPZ7P6EIKtqggzLLb-5" value="" style="rounded=0;whiteSpace=wrap;html=1;" vertex="1" parent="1">
          <mxGeometry x="450" y="240" width="120" height="60" as="geometry" />
        </mxCell>
        <mxCell id="biuHPZ7P6EIKtqggzLLb-6" value="Data Transformation" style="text;html=1;strokeColor=none;fillColor=none;align=center;verticalAlign=middle;whiteSpace=wrap;rounded=0;" vertex="1" parent="1">
          <mxGeometry x="470" y="255" width="80" height="30" as="geometry" />
        </mxCell>
        <mxCell id="biuHPZ7P6EIKtqggzLLb-7" value="" style="rounded=0;whiteSpace=wrap;html=1;" vertex="1" parent="1">
          <mxGeometry x="610" y="240" width="120" height="60" as="geometry" />
        </mxCell>
        <mxCell id="biuHPZ7P6EIKtqggzLLb-8" value="Data Validation" style="text;html=1;strokeColor=none;fillColor=none;align=center;verticalAlign=middle;whiteSpace=wrap;rounded=0;" vertex="1" parent="1">
          <mxGeometry x="630" y="255" width="80" height="30" as="geometry" />
        </mxCell>
        <mxCell id="biuHPZ7P6EIKtqggzLLb-9" value="" style="rounded=0;whiteSpace=wrap;html=1;" vertex="1" parent="1">
          <mxGeometry x="770" y="240" width="120" height="60" as="geometry" />
        </mxCell>
        <mxCell id="biuHPZ7P6EIKtqggzLLb-10" value="Create Training Data" style="text;html=1;strokeColor=none;fillColor=none;align=center;verticalAlign=middle;whiteSpace=wrap;rounded=0;" vertex="1" parent="1">
          <mxGeometry x="790" y="255" width="80" height="30" as="geometry" />
        </mxCell>
        <mxCell id="biuHPZ7P6EIKtqggzLLb-11" value="Data Preparation" style="text;html=1;strokeColor=none;fillColor=none;align=center;verticalAlign=middle;whiteSpace=wrap;rounded=0;" vertex="1" parent="1">
          <mxGeometry x="30" y="255" width="80" height="30" as="geometry" />
        </mxCell>
        <mxCell id="biuHPZ7P6EIKtqggzLLb-12" value="" style="rounded=0;whiteSpace=wrap;html=1;" vertex="1" parent="1">
          <mxGeometry x="294" y="350" width="120" height="60" as="geometry" />
        </mxCell>
        <mxCell id="biuHPZ7P6EIKtqggzLLb-13" value="Model Training" style="text;html=1;strokeColor=none;fillColor=none;align=center;verticalAlign=middle;whiteSpace=wrap;rounded=0;" vertex="1" parent="1">
          <mxGeometry x="314" y="365" width="80" height="30" as="geometry" />
        </mxCell>
        <mxCell id="biuHPZ7P6EIKtqggzLLb-14" value="" style="rounded=0;whiteSpace=wrap;html=1;" vertex="1" parent="1">
          <mxGeometry x="450" y="350" width="120" height="60" as="geometry" />
        </mxCell>
        <mxCell id="biuHPZ7P6EIKtqggzLLb-15" value="Model Tuning" style="text;html=1;strokeColor=none;fillColor=none;align=center;verticalAlign=middle;whiteSpace=wrap;rounded=0;" vertex="1" parent="1">
          <mxGeometry x="470" y="365" width="80" height="30" as="geometry" />
        </mxCell>
        <mxCell id="biuHPZ7P6EIKtqggzLLb-16" value="" style="rounded=0;whiteSpace=wrap;html=1;" vertex="1" parent="1">
          <mxGeometry x="140" y="460" width="120" height="60" as="geometry" />
        </mxCell>
        <mxCell id="biuHPZ7P6EIKtqggzLLb-17" value="Deploy" style="text;html=1;strokeColor=none;fillColor=none;align=center;verticalAlign=middle;whiteSpace=wrap;rounded=0;" vertex="1" parent="1">
          <mxGeometry x="160" y="475" width="80" height="30" as="geometry" />
        </mxCell>
        <mxCell id="biuHPZ7P6EIKtqggzLLb-18" value="" style="rounded=0;whiteSpace=wrap;html=1;" vertex="1" parent="1">
          <mxGeometry x="294" y="460" width="120" height="60" as="geometry" />
        </mxCell>
        <mxCell id="biuHPZ7P6EIKtqggzLLb-19" value="Service" style="text;html=1;strokeColor=none;fillColor=none;align=center;verticalAlign=middle;whiteSpace=wrap;rounded=0;" vertex="1" parent="1">
          <mxGeometry x="314" y="475" width="80" height="30" as="geometry" />
        </mxCell>
        <mxCell id="biuHPZ7P6EIKtqggzLLb-20" value="" style="rounded=0;whiteSpace=wrap;html=1;" vertex="1" parent="1">
          <mxGeometry x="450" y="460" width="120" height="60" as="geometry" />
        </mxCell>
        <mxCell id="biuHPZ7P6EIKtqggzLLb-21" value="Monitoring" style="text;html=1;strokeColor=none;fillColor=none;align=center;verticalAlign=middle;whiteSpace=wrap;rounded=0;" vertex="1" parent="1">
          <mxGeometry x="470" y="475" width="80" height="30" as="geometry" />
        </mxCell>
        <mxCell id="biuHPZ7P6EIKtqggzLLb-22" value="" style="rounded=0;whiteSpace=wrap;html=1;" vertex="1" parent="1">
          <mxGeometry x="610" y="460" width="120" height="60" as="geometry" />
        </mxCell>
        <mxCell id="biuHPZ7P6EIKtqggzLLb-23" value="Logging" style="text;html=1;strokeColor=none;fillColor=none;align=center;verticalAlign=middle;whiteSpace=wrap;rounded=0;" vertex="1" parent="1">
          <mxGeometry x="630" y="475" width="80" height="30" as="geometry" />
        </mxCell>
        <mxCell id="biuHPZ7P6EIKtqggzLLb-26" value="Model Train and Tuning" style="text;html=1;strokeColor=none;fillColor=none;align=center;verticalAlign=middle;whiteSpace=wrap;rounded=0;" vertex="1" parent="1">
          <mxGeometry x="30" y="365" width="80" height="30" as="geometry" />
        </mxCell>
        <mxCell id="biuHPZ7P6EIKtqggzLLb-27" value="Deploy and MonitoringDeploy and Monitoring" style="text;html=1;strokeColor=none;fillColor=none;align=center;verticalAlign=middle;whiteSpace=wrap;rounded=0;" vertex="1" parent="1">
          <mxGeometry x="30" y="475" width="80" height="30" as="geometry" />
        </mxCell>
      </root>
    </mxGraphModel>
  </diagram>
</mxfile>
